<svg width="30" height="26" viewBox="0 0 30 26" fill="none" xmlns="http://www.w3.org/2000/svg">
<path d="M30 11.7334V14.7344C28.8405 14.7344 27.8967 15.6797 27.8967 16.844V21.2792C27.8967 23.884 25.7815 25.9997 23.1839 25.9997H16.6344L18.432 22.9987H23.1839C24.1306 22.9987 24.9006 22.2275 24.9006 21.2792V16.844C24.9006 15.4336 25.4729 14.1612 26.3927 13.2339C25.4729 12.3096 24.9006 11.0342 24.9006 9.62671V4.71752C24.9006 3.77222 24.1306 3.00097 23.1839 3.00097H18.2133C17.2666 3.00097 16.4966 3.77222 16.4966 4.71752V11.7334H20.9068V14.7344H16.4966L16.4966 21.2792C16.4966 23.884 14.3843 25.9997 11.7867 25.9997H6.81614C4.21852 25.9997 2.10327 23.884 2.10327 21.2792L2.10327 16.844C2.10327 15.6797 1.15949 14.7344 0 14.7344V11.7334C1.15949 11.7334 2.10327 10.7881 2.10327 9.62671L2.10326 4.71752C2.10326 2.11568 4.21852 0 6.81614 0H13.3656L11.568 3.00097H6.81614C5.86937 3.00097 5.09937 3.77222 5.09937 4.71752L5.09937 9.62671C5.09937 11.0342 4.52711 12.3096 3.60731 13.2339C4.52711 14.1612 5.09937 15.4336 5.09937 16.844L5.09937 21.2792C5.09937 22.2275 5.86937 22.9987 6.81614 22.9987H11.7867C12.7305 22.9987 13.5005 22.2275 13.5005 21.2792L13.5004 4.71752C13.5004 2.11568 15.6157 0 18.2133 0H23.1839C25.7815 0 27.8967 2.11568 27.8967 4.71752L27.8967 9.62671C27.8967 10.7881 28.8405 11.7334 30 11.7334Z" fill="black"/>
</svg>
